<?xml version="1.0" encoding="UTF-8" standalone="no"?>
<!DOCTYPE svg PUBLIC "-//W3C//DTD SVG 1.1//EN" "http://www.w3.org/Graphics/SVG/1.1/DTD/svg11.dtd">
<svg width="100%" height="100%" viewBox="0 0 512 512" version="1.1" xmlns="http://www.w3.org/2000/svg" xmlns:xlink="http://www.w3.org/1999/xlink" xml:space="preserve" xmlns:serif="http://www.serif.com/" style="fill-rule:evenodd;clip-rule:evenodd;stroke-linejoin:round;stroke-miterlimit:2;">
    <g>
        <path d="M282.063,20.938C263.187,20.938 248.188,36.498 248.188,55.375C248.188,74.252 263.188,89.25 282.063,89.25C300.938,89.25 315.938,74.252 315.938,55.375C315.938,36.5 300.938,20.937 282.063,20.937L282.063,20.938ZM129.905,82.094C111.03,82.094 96.03,97.684 96.03,116.564C96.03,135.44 111.03,150.438 129.906,150.438C148.781,150.438 163.781,135.44 163.781,116.563C163.781,97.687 148.781,82.093 129.907,82.093L129.905,82.094ZM414.186,104.75C395.311,104.75 380.311,120.34 380.311,139.22C380.311,158.096 395.311,173.094 414.186,173.094C433.062,173.094 448.061,158.096 448.061,139.219C448.061,120.342 433.061,104.749 414.186,104.749L414.186,104.75ZM251.936,162.313C248.696,162.31 245.426,162.733 242.218,163.593C216.561,170.468 203.098,203.348 212.123,237.031C215.625,250.103 222.006,261.346 229.998,269.845C210.773,274.377 195.861,283.312 189.498,294.345L189.092,294.251L147.498,358.689L96.81,336.751C67.434,320.631 35.235,360.751 66.186,378.439L160.654,422.501L198.684,372.438C220.177,411.173 214.432,449.922 173.56,488.688L342.75,488.688C302.93,450.488 300.312,412.264 319.47,374.063L356.28,422.501L450.75,378.438C462.385,371.788 465.084,361.968 462.375,353.158C454.191,358.418 444.46,361.501 434.031,361.501C419.807,361.501 406.913,355.781 397.439,346.563L369.439,358.688L327.845,294.251L327.815,294.251C322.335,284.834 310.589,276.973 295.282,272.063C306.862,257.841 311.206,235.163 305.032,212.126C297.136,182.653 274.632,162.328 251.94,162.313L251.936,162.313ZM87.811,223.343C68.936,223.343 53.937,238.903 53.937,257.781C53.937,276.661 68.937,291.657 87.811,291.657C106.687,291.657 121.687,276.66 121.687,257.782C121.687,238.908 106.687,223.346 87.811,223.346L87.811,223.343ZM434.031,274.469C415.155,274.469 400.155,290.059 400.155,308.936C400.155,327.814 415.155,342.811 434.03,342.811C452.906,342.811 467.906,327.814 467.906,308.936C467.906,290.061 452.906,274.468 434.031,274.468L434.031,274.469Z" style="fill:rgb(165,239,172);fill-rule:nonzero;"/>
    </g>
</svg>
