<?xml version="1.0" encoding="UTF-8" standalone="no"?>
<!DOCTYPE svg PUBLIC "-//W3C//DTD SVG 1.1//EN" "http://www.w3.org/Graphics/SVG/1.1/DTD/svg11.dtd">
<svg width="100%" height="100%" viewBox="0 0 512 512" version="1.1" xmlns="http://www.w3.org/2000/svg" xmlns:xlink="http://www.w3.org/1999/xlink" xml:space="preserve" xmlns:serif="http://www.serif.com/" style="fill-rule:evenodd;clip-rule:evenodd;stroke-linejoin:round;stroke-miterlimit:2;">
    <g>
        <path d="M96,32C52,32 33,59.5 33,87C33,114.5 52,142 96,142L96.12,142C80.75,128.6 71,108.9 71,87C71,65.09 80.75,45.4 96.12,32L96,32ZM144,32C113.5,32 89,56.52 89,87C89,117.5 113.5,142 144,142C174.5,142 199,117.5 199,87C199,79.6 197.5,72.55 194.9,66.11L145,132.7L105.6,93.4L118.4,80.64L143,105.3L184.6,49.84C174.6,38.86 160.1,32 144,32ZM191.9,32C207.2,45.4 217,65.09 217,87C217,108.9 207.2,128.6 191.9,142L416,142C460,142 479,114.5 479,87C479,59.5 460,32 416,32L191.9,32ZM96,192C52,192 33,219.5 33,247C33,274.5 52,302 96,302L96.12,302C80.75,288.6 71,268.9 71,247C71,225.1 80.75,205.4 96.12,192L96,192ZM144,192C113.5,192 89,216.5 89,247C89,277.5 113.5,302 144,302C174.5,302 199,277.5 199,247C199,239.6 197.5,232.5 194.9,226.1L145,292.7L105.6,253.4L118.4,240.6L143,265.3L184.6,209.8C174.6,198.9 160.1,192 144,192ZM191.9,192C207.2,205.4 217,225.1 217,247C217,268.9 207.2,288.6 191.9,302L416,302C460,302 479,274.5 479,247C479,219.5 460,192 416,192L191.9,192ZM96,334C44,334 15,370.5 15,407C15,443.5 44,480 96,480L368,480C349.7,480 333,473.2 320.1,462L96,462C52,462 33,434.5 33,407C33,379.5 52,352 96,352L320.1,352C333,340.8 349.7,334 368,334L96,334ZM368,334C386.3,334 403,340.8 415.9,352L416,352C460,352 479,379.5 479,407C479,434.5 460,462 416,462L415.9,462C403,473.2 386.3,480 368,480L416,480C468,480 497,443.5 497,407C497,370.5 468,334 416,334L368,334ZM368,352C337.5,352 313,376.5 313,407C313,437.5 337.5,462 368,462C398.5,462 423,437.5 423,407C423,376.5 398.5,352 368,352ZM342.4,368.6L368,394.2L393.6,368.6L406.4,381.4L380.8,407L406.4,432.6L393.6,445.4L368,419.8L342.4,445.4L329.6,432.6L355.2,407L329.6,381.4L342.4,368.6Z" style="fill:rgb(165,239,172);fill-rule:nonzero;"/>
    </g>
</svg>
