<?xml version="1.0" encoding="UTF-8" standalone="no"?>
<!DOCTYPE svg PUBLIC "-//W3C//DTD SVG 1.1//EN" "http://www.w3.org/Graphics/SVG/1.1/DTD/svg11.dtd">
<svg width="100%" height="100%" viewBox="0 0 512 512" version="1.1" xmlns="http://www.w3.org/2000/svg" xmlns:xlink="http://www.w3.org/1999/xlink" xml:space="preserve" xmlns:serif="http://www.serif.com/" style="fill-rule:evenodd;clip-rule:evenodd;stroke-linejoin:round;stroke-miterlimit:2;">
    <g>
        <path d="M431.654,39.256C423.714,39.256 416.008,40.334 408.531,42.492C401.133,44.65 393.811,47.927 386.565,52.32L386.565,74.055C394.042,68.891 401.21,64.959 408.069,62.262C415.006,59.564 421.519,58.217 427.609,58.217C435.933,58.217 442.599,60.335 447.609,64.574C452.697,68.814 455.239,74.364 455.239,81.224C455.239,84.999 454.237,88.7 452.233,92.322C450.307,95.945 447.146,99.798 442.753,103.882L432.349,114.174C425.412,120.802 420.864,126.621 418.706,131.631C416.548,136.641 415.47,143.039 415.47,150.823L415.47,168.628L437.55,168.628L437.55,154.408C437.55,150.398 437.665,147.238 437.896,144.928C438.128,142.614 438.476,140.651 438.936,139.032C439.554,137.106 440.594,135.142 442.059,133.137C443.599,131.057 446.181,128.203 449.804,124.58L459.978,114.637C466.913,108.007 471.77,102.075 474.545,96.834C477.32,91.516 478.707,85.926 478.707,80.068C478.707,67.813 474.389,57.948 465.757,50.473C457.201,42.997 445.833,39.259 431.651,39.259L431.654,39.256ZM177.894,45.621C97.293,45.62 30,127.903 30,231.77C30,279.37 44.142,322.43 67.213,355.123C72.223,352.206 78.083,350.623 84.233,351.118C93.429,351.858 102.503,356.982 110.478,365.95C128.948,386.72 145.78,399.91 169.958,415.067C232.745,379.407 263.081,338.353 309.221,297.702C312.075,295.186 315.021,293.144 317.998,291.525C323.038,272.819 325.781,252.735 325.781,231.77C325.781,127.904 258.489,45.623 177.891,45.623L177.894,45.621ZM97.01,146.063C112.187,146.153 127.265,154.153 140.617,169.827L126.917,181.501C115.01,167.524 105.067,163.484 95.115,164.116C85.163,164.749 73.692,170.996 61.415,182.288L49.228,169.04C63.098,156.28 77.775,147.18 93.971,146.15C94.982,146.086 95.995,146.056 97.008,146.062L97.01,146.063ZM248.97,146.063C249.983,146.057 250.995,146.087 252.006,146.151C268.202,147.181 282.88,156.281 296.75,169.041L284.564,182.288C272.286,170.995 260.816,164.748 250.864,164.116C240.911,163.484 230.968,167.524 219.062,181.501L205.362,169.827C218.714,154.153 233.792,146.154 248.969,146.064L248.97,146.063ZM414.773,185.623L414.773,214.989L438.243,214.989L438.243,185.624L414.773,185.624L414.773,185.623ZM99.447,193.497C112.093,193.497 123.707,197.249 132.564,203.857C141.421,210.467 147.67,220.427 147.67,231.769C147.67,243.111 141.42,253.071 132.564,259.681C123.708,266.291 112.094,270.041 99.447,270.041C86.801,270.041 75.187,266.291 66.33,259.681C57.474,253.071 51.225,243.111 51.225,231.769C51.225,220.427 57.475,210.469 66.33,203.859C75.187,197.249 86.8,193.497 99.447,193.497ZM256.337,193.497C268.984,193.497 280.599,197.249 289.455,203.857C298.312,210.467 304.561,220.427 304.561,231.769C304.561,243.111 298.313,253.071 289.456,259.681C280.6,266.291 268.986,270.041 256.339,270.041C243.693,270.041 232.079,266.291 223.222,259.681C214.366,253.071 208.117,243.111 208.117,231.769C208.117,220.427 214.367,210.469 223.223,203.859C232.08,197.249 243.695,193.497 256.341,193.497L256.337,193.497ZM96.273,211.617C88.566,212.184 81.799,214.772 77.096,218.282C71.756,222.268 69.226,226.945 69.226,231.77C69.226,236.594 71.756,241.27 77.096,245.256C82.436,249.241 90.431,252.041 99.446,252.041C108.463,252.041 116.459,249.241 121.799,245.255C127.137,241.27 129.669,236.593 129.669,231.769C129.669,231.679 129.663,231.592 129.661,231.503C125.953,236.279 120.22,239.083 114.155,239.087C103.397,239.087 94.545,230.278 94.545,219.572C94.545,219.572 94.545,219.571 94.545,219.571C94.552,216.828 95.141,214.117 96.272,211.616L96.273,211.617ZM252.961,211.63C245.338,212.226 238.651,214.802 233.987,218.28C228.647,222.266 226.117,226.943 226.117,231.768C226.117,236.592 228.647,241.268 233.987,245.254C239.327,249.239 247.323,252.039 256.339,252.039C265.355,252.039 273.351,249.239 278.689,245.253C284.029,241.268 286.562,236.591 286.562,231.767C286.562,231.537 286.552,231.307 286.542,231.079C282.833,235.845 277.107,238.642 271.049,238.645C260.291,238.645 251.439,229.836 251.439,219.13C251.445,216.554 251.963,214.005 252.963,211.63L252.961,211.63ZM336.224,303.967C335.784,303.945 335.343,303.949 334.904,303.979C331.278,304.219 326.806,306.196 321.122,311.204C279.574,347.81 248.964,387.71 191.586,423.226L151.676,449.71L141.723,434.713L154.177,426.449C132.077,412.102 115,398.114 97.032,377.907C91.235,371.389 86.354,369.344 82.792,369.057C79.232,368.771 76.23,370.002 73.264,373.005C67.384,378.955 63.766,392.262 69.064,405.295C81.526,428.225 105.211,449.445 123.102,476.499L125.055,479.449L124.473,482.939C123.853,486.619 123.273,490.306 122.733,493.999L334.185,493.999C334.288,492.782 334.365,491.543 334.378,490.253C334.268,486.063 331.158,480.186 326.12,475.69C321.054,471.172 314.38,468.565 310.718,468.658L298.282,468.975L301.869,457.065C303.813,450.611 301.874,442.433 297.256,438.238C292.636,434.043 285.056,431.544 269.943,439.228L259.2,425.156C287.286,394.192 324.566,356.836 346.853,322.562C349.893,317.886 348.226,311.004 343.616,307.152C341.599,305.467 339.218,304.116 336.226,303.967L336.224,303.967ZM213.517,340.607L220.714,357.105C192.656,369.345 163.234,370.041 134.914,357.033L142.427,340.678C166.403,351.691 189.277,351.182 213.517,340.608L213.517,340.607Z" style="fill:rgb(165,239,172);fill-rule:nonzero;"/>
    </g>
</svg>
